<svg xmlns="http://www.w3.org/2000/svg" viewBox="0 0 24 24"><defs><style>.cls-1{fill:#131313;}</style></defs><g id="icon"><path class="cls-1" d="M18.51,20.75h-13a2.26,2.26,0,0,1-1.91-1.06,2.23,2.23,0,0,1-.09-2.18L10,4.49a2.23,2.23,0,0,1,4,0l6.51,13a2.23,2.23,0,0,1-.09,2.18A2.26,2.26,0,0,1,18.51,20.75ZM12,4.75a.73.73,0,0,0-.66.41l-6.51,13a.73.73,0,0,0,0,.72.72.72,0,0,0,.63.35h13a.72.72,0,0,0,.63-.35.73.73,0,0,0,0-.72l-6.51-13A.72.72,0,0,0,12,4.75Z"/><rect class="cls-1" x="11.24" y="9.5" width="1.5" height="5" rx="0.5"/><circle class="cls-1" cx="11.99" cy="15.75" r="0.75"/></g></svg>