<svg xmlns="http://www.w3.org/2000/svg" viewBox="0 0 24 24"><defs><style>.cls-1,.cls-2{fill:none;}.cls-1,.cls-2,.cls-3{stroke:#1a1a1a;stroke-linejoin:round;stroke-width:1.5px;}.cls-2,.cls-3{stroke-linecap:round;}.cls-3{fill:#fff;}</style></defs><g id="icon"><line class="cls-1" x1="12" y1="4" x2="12" y2="12.04"/><polyline class="cls-2" points="15.48 6.01 12 4 5.04 8.02 5.04 16.06 12 20.08 18.97 16.06 18.97 8.02 15.48 6.01"/><line class="cls-1" x1="12" y1="20.08" x2="12" y2="11.87"/><polyline class="cls-1" points="12 12.04 12.01 12.04 18.97 8.02"/><line class="cls-1" x1="8.52" y1="10.03" x2="5.04" y2="8.02"/><polyline class="cls-1" points="12.01 12.04 12 12.04 8.52 10.03"/><polygon class="cls-3" points="18.96 8.02 12.01 12.04 8.52 10.03 15.48 6.01 18.96 8.02"/><polygon class="cls-3" points="15.48 6.02 8.52 10.03 5.04 8.02 12.01 4 15.48 6.02"/></g></svg>