<svg xmlns="http://www.w3.org/2000/svg" viewBox="0 0 24 24"><defs><style>.cls-1{fill:#1a1a1a;}</style></defs><g id="icon"><path class="cls-1" d="M15.71,12.64l-.36-.35a.5.5,0,0,0-.7,0l-1.9,1.9V7.75a.5.5,0,0,0-.5-.5h-.5a.5.5,0,0,0-.5.5v6.44l-1.9-1.9a.5.5,0,0,0-.7,0l-.36.35a.51.51,0,0,0,0,.71l3.36,3.35a.48.48,0,0,0,.7,0l3.36-3.35A.51.51,0,0,0,15.71,12.64Z"/><path class="cls-1" d="M17.71,20.75H6.29a2.9,2.9,0,0,1-3-2.75V16.5a.5.5,0,0,1,.5-.5h.5a.5.5,0,0,1,.5.5V18a1.42,1.42,0,0,0,1.54,1.25H17.71A1.42,1.42,0,0,0,19.25,18V16.5a.5.5,0,0,1,.5-.5h.5a.5.5,0,0,1,.5.5V18A2.9,2.9,0,0,1,17.71,20.75Z"/></g></svg>