<svg xmlns="http://www.w3.org/2000/svg" xmlns:xlink="http://www.w3.org/1999/xlink" viewBox="0 0 24 24"><defs><style>.cls-1,.cls-3,.cls-6,.cls-7{fill:none;}.cls-2{clip-path:url(#clip-path);}.cls-3{stroke:#000;stroke-width:0.25px;}.cls-3,.cls-6,.cls-7{stroke-miterlimit:10;}.cls-4{opacity:0.4;}.cls-5{fill:#131313;}.cls-6,.cls-7{stroke:#131313;stroke-width:1.5px;}.cls-6{stroke-linecap:round;}</style><clipPath id="clip-path"><rect class="cls-1" width="48" height="48"/></clipPath><symbol id="material_system_icon_grid" data-name="material_system_icon_grid" viewBox="0 0 48 48"><g class="cls-2"><line class="cls-3" x1="2" y1="48" x2="2"/><line class="cls-3" x1="4" y1="48" x2="4"/><line class="cls-3" x1="6" y1="48" x2="6"/><line class="cls-3" x1="8" y1="48" x2="8"/><line class="cls-3" x1="10" y1="48" x2="10"/><line class="cls-3" x1="12" y1="48" x2="12"/><line class="cls-3" x1="14" y1="48" x2="14"/><line class="cls-3" x1="16" y1="48" x2="16"/><line class="cls-3" x1="18" y1="48" x2="18"/><line class="cls-3" x1="20" y1="48" x2="20"/><line class="cls-3" x1="22" y1="48" x2="22"/><line class="cls-3" x1="24" y1="48" x2="24"/><line class="cls-3" x1="26" y1="48" x2="26"/><line class="cls-3" x1="28" y1="48" x2="28"/><line class="cls-3" x1="30" y1="48" x2="30"/><line class="cls-3" x1="32" y1="48" x2="32"/><line class="cls-3" x1="34" y1="48" x2="34"/><line class="cls-3" x1="36" y1="48" x2="36"/><line class="cls-3" x1="38" y1="48" x2="38"/><line class="cls-3" x1="40" y1="48" x2="40"/><line class="cls-3" x1="42" y1="48" x2="42"/><line class="cls-3" x1="44" y1="48" x2="44"/><line class="cls-3" x1="46" y1="48" x2="46"/><line class="cls-3" y1="2" x2="48" y2="2"/><line class="cls-3" y1="4" x2="48" y2="4"/><line class="cls-3" y1="6" x2="48" y2="6"/><line class="cls-3" y1="8" x2="48" y2="8"/><line class="cls-3" y1="10" x2="48" y2="10"/><line class="cls-3" y1="12" x2="48" y2="12"/><line class="cls-3" y1="14" x2="48" y2="14"/><line class="cls-3" y1="16" x2="48" y2="16"/><line class="cls-3" y1="18" x2="48" y2="18"/><line class="cls-3" y1="20" x2="48" y2="20"/><line class="cls-3" y1="22" x2="48" y2="22"/><line class="cls-3" y1="24" x2="48" y2="24"/><line class="cls-3" y1="26" x2="48" y2="26"/><line class="cls-3" y1="28" x2="48" y2="28"/><line class="cls-3" y1="30" x2="48" y2="30"/><line class="cls-3" y1="32" x2="48" y2="32"/><line class="cls-3" y1="34" x2="48" y2="34"/><line class="cls-3" y1="36" x2="48" y2="36"/><line class="cls-3" y1="38" x2="48" y2="38"/><line class="cls-3" y1="40" x2="48" y2="40"/><line class="cls-3" y1="42" x2="48" y2="42"/><line class="cls-3" y1="44" x2="48" y2="44"/><line class="cls-3" y1="46" x2="48" y2="46"/><path d="M47.75.25v47.5H.25V.25h47.5M48,0H0V48H48V0Z"/></g></symbol><symbol id="material_system_icon_keylines" data-name="material_system_icon_keylines" viewBox="0 0 48 48"><g class="cls-4"><g class="cls-2"><line class="cls-3" x1="24" x2="24" y2="48"/><line class="cls-3" x1="48" y1="24" y2="24"/><line class="cls-3" x1="48" y1="16" y2="16"/><line class="cls-3" x1="48" y1="32" y2="32"/><line class="cls-3" x1="32" y1="48" x2="32"/><line class="cls-3" x1="16" y1="48" x2="16"/><line class="cls-3" x1="47.75" y1="0.25" x2="0.25" y2="47.75"/><line class="cls-3" x1="0.25" y1="0.25" x2="47.75" y2="47.75"/><path class="cls-3" d="M24,14A10,10,0,1,0,34,24,10,10,0,0,0,24,14Z"/><path class="cls-3" d="M24,4A20,20,0,1,0,44,24,20,20,0,0,0,24,4Z"/><path class="cls-3" d="M38,6H10a4,4,0,0,0-4,4V38a4,4,0,0,0,4,4H38a4,4,0,0,0,4-4V10A4,4,0,0,0,38,6Z"/><path class="cls-3" d="M40,8H8a4,4,0,0,0-4,4V36a4,4,0,0,0,4,4H40a4,4,0,0,0,4-4V12A4,4,0,0,0,40,8Z"/><path class="cls-3" d="M40,40V8a4,4,0,0,0-4-4H12A4,4,0,0,0,8,8V40a4,4,0,0,0,4,4H36A4,4,0,0,0,40,40Z"/><path d="M47.75.25v47.5H.25V.25h47.5M48,0H0V48H48V0Z"/></g></g></symbol></defs><g id="grid"><use width="48" height="48" transform="translate(0 0) scale(0.5)" xlink:href="#material_system_icon_grid"/><use width="48" height="48" transform="translate(0 0) scale(0.5)" xlink:href="#material_system_icon_keylines"/></g><g id="icon"><rect class="cls-5" x="11.24" y="8.75" width="1.5" height="5" rx="0.5"/><line class="cls-6" x1="11.99" y1="15.25" x2="11.99" y2="15.25"/><circle class="cls-7" cx="12" cy="12" r="8"/></g></svg>