<svg xmlns="http://www.w3.org/2000/svg" viewBox="0 0 24 24"><defs><style>.cls-1{fill:#131313;}</style></defs><g id="icon"><path class="cls-1" d="M18,19.75H6A1.75,1.75,0,0,1,4.25,18V6A1.75,1.75,0,0,1,6,4.25H9.5a.5.5,0,0,1,.5.5v.5a.5.5,0,0,1-.5.5H6A.25.25,0,0,0,5.75,6V18a.25.25,0,0,0,.25.25H18a.25.25,0,0,0,.25-.25V14.5a.5.5,0,0,1,.5-.5h.5a.5.5,0,0,1,.5.5V18A1.75,1.75,0,0,1,18,19.75Z"/><path class="cls-1" d="M12.18,12.18l-.36-.36a.5.5,0,0,1,0-.7l6.65-6.65,1.06,1.06-6.65,6.65A.5.5,0,0,1,12.18,12.18Z"/><path class="cls-1" d="M19.25,10h-.5a.5.5,0,0,1-.5-.5V5.75H14.5a.5.5,0,0,1-.5-.5v-.5a.5.5,0,0,1,.5-.5H19a.76.76,0,0,1,.75.75V9.5A.5.5,0,0,1,19.25,10Z"/></g></svg>